<svg xmlns="http://www.w3.org/2000/svg" xmlns:xlink="http://www.w3.org/1999/xlink" width="2000" zoomAndPan="magnify" viewBox="0 0 1500 1499.999933" height="2000" preserveAspectRatio="xMidYMid meet" version="1.0"><defs><clipPath id="83a8f4129f"><path d="M 243.191406 243.191406 L 1256.808594 243.191406 L 1256.808594 1256.808594 L 243.191406 1256.808594 Z M 243.191406 243.191406 " clip-rule="nonzero"/></clipPath><clipPath id="6d9d5e7462"><path d="M 750 243.191406 C 470.097656 243.191406 243.191406 470.097656 243.191406 750 C 243.191406 1029.902344 470.097656 1256.808594 750 1256.808594 C 1029.902344 1256.808594 1256.808594 1029.902344 1256.808594 750 C 1256.808594 470.097656 1029.902344 243.191406 750 243.191406 Z M 750 243.191406 " clip-rule="nonzero"/></clipPath><clipPath id="12f1fccca9"><path d="M 0.191406 0.191406 L 1013.808594 0.191406 L 1013.808594 1013.808594 L 0.191406 1013.808594 Z M 0.191406 0.191406 " clip-rule="nonzero"/></clipPath><clipPath id="0e5cf4bf08"><path d="M 507 0.191406 C 227.097656 0.191406 0.191406 227.097656 0.191406 507 C 0.191406 786.902344 227.097656 1013.808594 507 1013.808594 C 786.902344 1013.808594 1013.808594 786.902344 1013.808594 507 C 1013.808594 227.097656 786.902344 0.191406 507 0.191406 Z M 507 0.191406 " clip-rule="nonzero"/></clipPath><clipPath id="39d8c63dbb"><rect x="0" width="1014" y="0" height="1014"/></clipPath></defs><g clip-path="url(#83a8f4129f)"><g clip-path="url(#6d9d5e7462)"><g transform="matrix(1, 0, 0, 1, 243, 243)"><g clip-path="url(#39d8c63dbb)"><g clip-path="url(#12f1fccca9)"><g clip-path="url(#0e5cf4bf08)"><path fill="#05df72" d="M 0.191406 0.191406 L 1013.808594 0.191406 L 1013.808594 1013.808594 L 0.191406 1013.808594 Z M 0.191406 0.191406 " fill-opacity="1" fill-rule="nonzero"/></g></g></g></g></g></g></svg>